<svg width="19" height="19" viewBox="0 0 19 19" fill="none" xmlns="http://www.w3.org/2000/svg">
<path d="M0.125 15.1876V18.3543C0.125 18.6459 0.354167 18.8751 0.645833 18.8751H3.8125C3.94792 18.8751 4.08333 18.823 4.17708 18.7189L15.5521 7.35427L11.6458 3.44802L0.28125 14.8126C0.177083 14.9168 0.125 15.0418 0.125 15.1876ZM18.5729 4.33344C18.6695 4.23707 18.7461 4.1226 18.7984 3.99659C18.8506 3.87057 18.8775 3.73549 18.8775 3.59906C18.8775 3.46264 18.8506 3.32755 18.7984 3.20154C18.7461 3.07552 18.6695 2.96106 18.5729 2.86469L16.1354 0.427188C16.039 0.330622 15.9246 0.25401 15.7986 0.201737C15.6726 0.149465 15.5375 0.122559 15.401 0.122559C15.2646 0.122559 15.1295 0.149465 15.0035 0.201737C14.8775 0.25401 14.763 0.330622 14.6667 0.427188L12.7604 2.33344L16.6667 6.23969L18.5729 4.33344Z" fill="white"/>
</svg>
