<svg width="25" height="25" viewBox="0 0 25 25" fill="none" xmlns="http://www.w3.org/2000/svg">
<path d="M12.5 2.08325C6.75004 2.08325 2.08337 6.74992 2.08337 12.4999C2.08337 18.2499 6.75004 22.9166 12.5 22.9166C18.25 22.9166 22.9167 18.2499 22.9167 12.4999C22.9167 6.74992 18.25 2.08325 12.5 2.08325ZM13.5417 19.7916H11.4584V17.7083H13.5417V19.7916ZM15.698 11.7187L14.7605 12.677C14.2396 13.2083 13.8646 13.6874 13.6771 14.4374C13.5938 14.7708 13.5417 15.1458 13.5417 15.6249H11.4584V15.1041C11.4578 14.5567 11.5651 14.0146 11.7742 13.5088C11.9834 13.0029 12.2902 12.5433 12.6771 12.1562L13.9688 10.8437C14.448 10.3853 14.6771 9.69784 14.5417 8.96867C14.4695 8.59588 14.2963 8.2501 14.0409 7.96904C13.7856 7.68799 13.458 7.48248 13.0938 7.37492C11.9375 7.052 10.8646 7.70825 10.5209 8.69784C10.3959 9.08325 10.073 9.37492 9.66671 9.37492H9.35421C8.75004 9.37492 8.33337 8.79159 8.50004 8.20825C8.72346 7.44833 9.15844 6.76763 9.7542 6.24565C10.35 5.72367 11.0819 5.38193 11.8646 5.26034C13.448 5.01034 14.9584 5.83325 15.8959 7.13534C17.125 8.83325 16.7605 10.6562 15.698 11.7187Z" fill="white"/>
</svg>
